<?xml version="1.0" encoding="UTF-8" standalone="no"?>
<!-- Created with Inkscape (http://www.inkscape.org/) -->

<svg
   width="1024"
   height="1024"
   viewBox="0 0 270.93333 270.93333"
   version="1.1"
   id="svg1"
   inkscape:version="1.4.3 (0d15f75, 2025-12-25)"
   sodipodi:docname="lf_4.svg"
   xml:space="preserve"
   xmlns:inkscape="http://www.inkscape.org/namespaces/inkscape"
   xmlns:sodipodi="http://sodipodi.sourceforge.net/DTD/sodipodi-0.dtd"
   xmlns="http://www.w3.org/2000/svg"
   xmlns:svg="http://www.w3.org/2000/svg"><sodipodi:namedview
     id="namedview1"
     pagecolor="#ffffff"
     bordercolor="#000000"
     borderopacity="0.25"
     inkscape:showpageshadow="2"
     inkscape:pageopacity="0.0"
     inkscape:pagecheckerboard="0"
     inkscape:deskcolor="#d1d1d1"
     inkscape:document-units="mm"
     inkscape:zoom="1.0396254"
     inkscape:cx="397.25847"
     inkscape:cy="561.25984"
     inkscape:window-width="2560"
     inkscape:window-height="1369"
     inkscape:window-x="-8"
     inkscape:window-y="328"
     inkscape:window-maximized="1"
     inkscape:current-layer="layer1" /><defs
     id="defs1" /><g
     inkscape:label="Path Trace - Brightness Cutoff"
     inkscape:groupmode="layer"
     id="layer1"><path
       style="display:inline;fill:#000000"
       d="m 182.67526,97.482616 c -1.52797,-0.184029 -3.55203,-0.515876 -4.49792,-0.73744 -0.94588,-0.221563 -2.43416,-0.479808 -3.30729,-0.573878 -0.87312,-0.09407 -2.18281,-0.334885 -2.91041,-0.535144 -0.72761,-0.20026 -2.63575,-0.543829 -4.24033,-0.763488 -1.60457,-0.219659 -3.24366,-0.523423 -3.64242,-0.675033 -0.39877,-0.151609 -1.82437,-0.40342 -3.16802,-0.559579 -1.34364,-0.156158 -3.06555,-0.458604 -3.82647,-0.672101 -0.76092,-0.213496 -2.67202,-0.558125 -4.24691,-0.765841 -1.57488,-0.207716 -3.19674,-0.504394 -3.60413,-0.659283 -3.94051,-1.498181 -21.30879,-1.431788 -26.37473,0.10082 -0.66738,0.201904 -2.0366,0.445823 -3.04271,0.542042 -1.0061,0.09622 -2.60319,0.393178 -3.54907,0.659908 -0.94589,0.26673 -2.90291,0.6277 -4.34895,0.802154 -1.44603,0.174455 -2.91685,0.426573 -3.26848,0.560263 -0.35163,0.13369 -1.80535,0.418207 -3.23049,0.63226 -1.42514,0.214052 -2.93089,0.518758 -3.3461,0.677124 -0.41522,0.158365 -2.226392,0.460485 -4.024833,0.671377 -1.79844,0.210893 -3.482105,0.497014 -3.741477,0.635826 -0.563775,0.301723 -4.595183,0.788578 -6.555075,0.791627 -1.942541,0.003 -1.91168,0.171893 -1.91168,-10.460718 V 78.04799 l 1.018238,-0.519467 c 0.560031,-0.285706 1.8317,-0.708121 2.825932,-0.938698 0.994232,-0.230578 1.935009,-0.523765 2.090616,-0.651528 0.155607,-0.127762 0.965331,-0.429951 1.799386,-0.671531 0.834055,-0.24158 1.579854,-0.541804 1.657331,-0.667164 0.07748,-0.125361 0.585693,-0.372925 1.129369,-0.550144 0.543676,-0.177218 1.306264,-0.572858 1.69464,-0.879198 0.388376,-0.306341 1.193739,-0.849877 1.789694,-1.207858 5.336149,-3.205341 8.358459,-10.680808 6.607449,-16.343047 -0.97505,-3.153027 -1.56612,-4.146899 -4.0866,-6.871537 C 101.21026,47.50082 99.847716,46.203246 99.335952,45.86432 98.824188,45.525394 97.89027,44.883197 97.260578,44.437216 96.630886,43.991235 95.717673,43.421371 95.231217,43.170852 93.324267,42.188795 89.601857,40.371005 88.219015,39.746535 87.41865,39.385103 86.166785,38.803902 85.437092,38.454978 84.7074,38.106054 83.933493,37.819837 83.717301,37.81894 83.501108,37.818044 82.969472,37.632332 82.535887,37.406248 82.102302,37.180163 81.149802,36.868761 80.41922,36.714242 79.688639,36.559724 78.793234,36.283925 78.429432,36.101356 78.06563,35.918787 76.220161,35.354226 74.328391,34.846776 72.43662,34.339326 70.353026,33.779119 69.698182,33.601871 69.043339,33.424623 67.67412,33.109088 66.655474,32.900683 65.636828,32.692278 64.26761,32.394679 63.612766,32.239351 62.957922,32.084023 61.707766,31.836155 60.834641,31.688531 49.520132,29.775538 47.909359,29.031999 46.156612,24.913105 44.816357,21.763551 44.29076,13.935651 45.333106,12.648321 45.80749,12.062441 168.87404,11.433313 171.1791,12.004984 c 0.72554,0.179942 1.44199,1.753454 1.44199,3.167008 0,2.842864 -2.25438,2.643394 27.90006,2.46862 19.10916,-0.110756 26.88855,-0.07248 27.26625,0.134153 1.3947,0.763014 1.26155,1.450684 -1.24295,6.419764 -1.30374,2.586684 -2.87062,4.662542 -5.49519,7.280216 -3.3624,3.353553 -9.40082,7.666773 -12.44483,8.889293 -0.21829,0.08767 -1.0057,0.445017 -1.74981,0.794116 -0.7441,0.349099 -1.8752,0.805579 -2.51354,1.0144 -0.63834,0.208821 -2.17264,0.751789 -3.40957,1.206595 -1.23693,0.454806 -3.0824,1.035799 -4.10104,1.291097 -1.01865,0.255298 -2.09021,0.59079 -2.38125,0.745538 -0.29104,0.154748 -1.18401,0.36257 -1.98438,0.461827 -0.80036,0.09926 -2.05052,0.342325 -2.77812,0.540153 -0.72761,0.197828 -2.63261,0.554155 -4.23334,0.791838 -1.60072,0.237683 -3.2676,0.549807 -3.70416,0.69361 -0.43656,0.143803 -2.00665,0.433104 -3.48907,0.64289 -13.0372,1.844967 -16.2685,15.64012 -5.37447,22.944858 0.3638,0.243939 1.14328,0.785244 1.73218,1.2029 1.8355,1.301765 6.45182,3.32683 8.85115,3.882778 4.07695,0.944671 3.79684,0.108172 3.73884,11.165295 -0.045,8.577291 -0.0907,9.461364 -0.50509,9.776145 -0.52695,0.400249 -0.40059,0.401362 -4.0275,-0.03546 z"
       id="path4"
       inkscape:label="Anvil" /><path
       style="display:inline;fill:#000000"
       d="m 124.06418,219.09992 c -0.29427,-0.0946 -0.83006,-0.38687 -1.19063,-0.64941 -0.36057,-0.26253 -1.41746,-0.97691 -2.34865,-1.5875 -1.58927,-1.0421 -2.23123,-1.44263 -4.52464,-2.82299 -0.50932,-0.30655 -1.34276,-0.85207 -1.85208,-1.21226 -0.50932,-0.36019 -1.14989,-0.8019 -1.42349,-0.98157 -0.2736,-0.17967 -0.95108,-0.68386 -1.5055,-1.12042 -0.55443,-0.43656 -1.44503,-1.09141 -1.97912,-1.45521 -4.17013,-2.84055 -13.282073,-11.16283 -16.222564,-14.81666 -0.878329,-1.09141 -1.900588,-2.35791 -2.271685,-2.81444 -0.371098,-0.45654 -0.674723,-0.94797 -0.674723,-1.09208 0,-0.14412 -0.188323,-0.41832 -0.418497,-0.60935 -0.410966,-0.34107 -0.74526,-0.91084 -2.085136,-3.55393 -0.368849,-0.7276 -0.785268,-1.50151 -0.925376,-1.71979 -0.429102,-0.66852 -1.862657,-4.16739 -1.862657,-4.54618 0,-0.19604 -0.21929,-0.7714 -0.487312,-1.27857 -0.268021,-0.50717 -0.637008,-1.69603 -0.819972,-2.64191 -0.182963,-0.94589 -0.451133,-1.94127 -0.595934,-2.21197 -0.278132,-0.51995 -1.161127,-5.99643 -1.541718,-9.56199 -0.381489,-3.57398 -0.31212,-53.32824 0.0754,-54.07909 0.800359,-1.55077 1.272436,-1.6157 11.747912,-1.6157 12.359732,0 10.689222,-4.4167 10.624652,28.09072 -0.0567,28.5216 0.0394,30.90158 1.372,33.99262 0.26009,0.60329 0.55629,1.47661 0.65822,1.94072 0.19134,0.87116 1.35628,3.23585 2.11676,4.29678 2.03727,2.84217 2.79106,3.74984 4.45719,5.36715 2.0955,2.03408 5.26809,4.6544 6.92092,5.71615 0.58209,0.37393 1.40401,0.90729 1.82649,1.18525 0.42248,0.27797 1.14924,0.74352 1.61502,1.03456 2.86677,1.79132 2.62911,0.4953 2.7762,15.13951 0.1449,14.4258 0.17622,14.13409 -1.46108,13.60756 z"
       id="path3"
       inkscape:label="L" /><path
       style="display:inline;fill:#000000"
       d="m 136.50832,223.56357 c -0.8144,-1.57488 -0.56993,-113.3656 0.24971,-114.18524 0.94009,-0.9401 53.10235,-1.04402 54.93426,-0.10945 1.56972,0.80081 1.59489,0.97752 1.51027,10.60344 -0.0947,10.77176 2.464,9.33534 -16.91182,9.49408 -19.48172,0.1596 -16.89881,-1.32316 -16.89881,9.70107 0,10.73282 -2.30599,9.40804 16.22952,9.32383 14.58867,-0.0663 14.58867,-0.0663 15.12072,0.8393 1.02154,1.73874 0.62136,18.53007 -0.46753,19.61738 -0.0323,0.0323 -6.86922,0.12157 -15.19313,0.19844 -11.91359,0.11002 -15.20753,0.21293 -15.47812,0.48357 -0.27368,0.27371 -0.37072,4.51023 -0.47605,20.7817 -0.15004,23.1804 0.0914,21.0194 -2.54403,22.77307 -3.09485,2.05939 -3.44195,2.27122 -3.72164,2.27122 -0.15627,0 -0.43804,0.18547 -0.62618,0.41216 -0.18813,0.22669 -0.70873,0.58614 -1.15687,0.79879 -0.44815,0.21265 -1.46966,0.79881 -2.27003,1.30259 -0.80036,0.50378 -1.83401,1.09502 -2.29701,1.31387 -0.46299,0.21885 -0.9144,0.51538 -1.00314,0.65896 -0.0887,0.14358 -0.66243,0.50532 -1.27487,0.80386 -0.61243,0.29854 -1.70883,0.89859 -2.43643,1.33344 -1.26831,0.75801 -3.03922,1.63401 -4.29663,2.12538 -0.49882,0.19492 -0.65565,0.10934 -0.99219,-0.54146 z"
       id="path2"
       inkscape:label="F" /><path
       style="display:inline;fill:#000000"
       d="m 134.91797,264.37665 c -0.7276,-0.22072 -1.63895,-0.62504 -2.02522,-0.89849 -0.38626,-0.27345 -0.79357,-0.49718 -0.90513,-0.49718 -0.22452,0 -3.45387,-1.48004 -4.08111,-1.87041 -0.21828,-0.13584 -0.99218,-0.54245 -1.71979,-0.90356 -1.19198,-0.59158 -6.87311,-3.61985 -9.92187,-5.28876 -0.65485,-0.35847 -1.69171,-0.89704 -2.30415,-1.19684 -0.61243,-0.2998 -1.18291,-0.65737 -1.26773,-0.7946 -0.0848,-0.13724 -0.65529,-0.49025 -1.26773,-0.78448 -0.61243,-0.29423 -1.41895,-0.7441 -1.79226,-0.99972 -1.74464,-1.19462 -2.51974,-1.65348 -2.79459,-1.6544 -0.16408,-5.4e-4 -0.45377,-0.18828 -0.64376,-0.4172 -0.18998,-0.22891 -0.77011,-0.64688 -1.28917,-0.92881 -0.51905,-0.28193 -1.18186,-0.65722 -1.4729,-0.83398 -0.29105,-0.17676 -0.94589,-0.57316 -1.45521,-0.8809 -0.96598,-0.58365 -2.057821,-1.29174 -3.033277,-1.96718 -0.315239,-0.21828 -0.982104,-0.65654 -1.481923,-0.97391 -0.960467,-0.60987 -2.064354,-1.37559 -3.554594,-2.46567 -0.497351,-0.3638 -1.330788,-0.95911 -1.852083,-1.32292 -1.11355,-0.77712 -2.692038,-1.9288 -3.439583,-2.50954 -0.291042,-0.2261 -1.124841,-0.85528 -1.852887,-1.39817 -1.242844,-0.92677 -2.387904,-1.83114 -7.843143,-6.1945 -3.565928,-2.85221 -10.510112,-9.88802 -13.009455,-13.18112 -0.607448,-0.80036 -1.640808,-2.12566 -2.296357,-2.9451 -0.655549,-0.81945 -1.787219,-2.34458 -2.514823,-3.38918 -0.727605,-1.0446 -1.590808,-2.23681 -1.91823,-2.64934 -0.327421,-0.41253 -0.595312,-0.86564 -0.595312,-1.00691 0,-0.14127 -0.22366,-0.54119 -0.497022,-0.88872 -0.273362,-0.34752 -0.769851,-1.10772 -1.10331,-1.68932 -0.333458,-0.58161 -0.883706,-1.53372 -1.222772,-2.1158 -0.339066,-0.58209 -0.79808,-1.47506 -1.020031,-1.98438 -0.221951,-0.50932 -0.519606,-1.1344 -0.661456,-1.38906 -0.919936,-1.65155 -2.374575,-4.85084 -2.374575,-5.22258 0,-0.16224 -0.232021,-0.73529 -0.515601,-1.27344 -0.481545,-0.91383 -0.697896,-1.50422 -1.740227,-4.74877 -0.222059,-0.69123 -0.590201,-1.79255 -0.818093,-2.4474 -0.381872,-1.0973 -0.636285,-2.08659 -1.7691,-6.87916 -0.223577,-0.94589 -0.538089,-2.6723 -0.698915,-3.83646 -0.160826,-1.16417 -0.492335,-3.30729 -0.736686,-4.7625 -0.401479,-2.39097 -0.445429,-6.37182 -0.456264,-41.32631 l -0.01199,-38.68047 0.911798,-0.94088 c 0.501489,-0.517483 1.049303,-0.940879 1.217364,-0.940879 0.168061,0 0.83854,-0.283385 1.489953,-0.629745 0.651413,-0.346359 1.821885,-0.766463 2.601049,-0.933564 0.779163,-0.167101 1.552722,-0.41674 1.719019,-0.554755 0.166297,-0.138014 1.126918,-0.42511 2.134713,-0.63799 1.007794,-0.212881 2.257979,-0.565707 2.778188,-0.784059 0.52021,-0.218352 1.770366,-0.53807 2.778125,-0.710485 1.00776,-0.172414 2.045582,-0.424485 2.306272,-0.560158 0.26069,-0.135672 1.47401,-0.421229 2.696267,-0.63457 1.222257,-0.213341 2.72273,-0.56446 3.334384,-0.780265 1.71006,-0.603344 4.735807,-0.821996 5.02627,-0.363218 0.281206,0.444159 0.320031,19.820958 0.04057,20.245698 -0.235461,0.35787 -3.823269,1.95353 -4.392456,1.95353 -1.822667,0 -1.770682,-0.99072 -1.688453,32.17758 0.08231,33.20121 0.05156,32.48195 1.672862,39.12762 0.355018,1.45521 0.645388,2.82443 0.645267,3.04271 -1.21e-4,0.21828 0.17732,0.73729 0.394315,1.15335 0.216994,0.41607 0.564374,1.36857 0.771955,2.11667 0.368024,1.32632 1.394768,3.998 2.149629,5.59352 0.206543,0.43656 0.554606,1.21047 0.773473,1.71979 0.432696,1.00692 2.6086,4.95819 3.427709,6.22444 0.614671,0.95022 2.101473,3.18261 2.726858,4.09431 2.299988,3.35297 8.201029,9.76504 12.29658,13.36146 0.828585,0.7276 2.116858,1.8587 2.862829,2.51354 0.745971,0.65484 1.55562,1.29473 1.79922,1.42196 0.243599,0.12723 0.56197,0.36535 0.707491,0.52916 0.145521,0.16381 0.978959,0.83332 1.852084,1.4878 0.873124,0.65447 1.647024,1.25046 1.719784,1.32442 0.32559,0.33094 2.05742,1.54929 2.77813,1.95443 0.43656,0.24541 1.27,0.80292 1.85208,1.2389 2.02436,1.51626 4.54706,3.22644 6.21771,4.21508 0.50932,0.30141 1.40229,0.83349 1.98438,1.18242 2.06225,1.2362 5.87,3.42082 6.87916,3.94677 0.43656,0.22753 1.4486,0.78788 2.24896,1.24523 0.80036,0.45734 2.40771,1.32966 3.57187,1.93847 1.16417,0.60882 2.41433,1.29659 2.77813,1.52839 0.3638,0.2318 0.95911,0.50747 1.32292,0.61259 0.3638,0.10513 0.84005,0.34573 1.05833,0.53467 1.15613,1.00074 3.24445,1.4632 4.47872,0.99183 2.10406,-0.80355 13.47722,-6.64293 15.62961,-8.02479 0.65485,-0.42042 1.72641,-1.06975 2.38125,-1.44295 0.65484,-0.37321 1.72641,-1.02787 2.38125,-1.4548 0.65484,-0.42694 1.60734,-1.02008 2.11667,-1.31809 0.50932,-0.29802 1.81901,-1.13578 2.91041,-1.86171 1.09141,-0.72592 2.68143,-1.76604 3.53339,-2.31138 0.85195,-0.54534 1.94838,-1.28918 2.43651,-1.65298 0.48813,-0.3638 1.31909,-0.95912 1.84659,-1.32292 5.87404,-4.0512 15.98876,-13.59406 20.61222,-19.44687 2.03803,-2.57993 2.15901,-2.74533 3.09646,-4.23334 0.45839,-0.7276 1.09624,-1.73963 1.41745,-2.24895 1.06731,-1.69241 1.66044,-2.75952 2.64714,-4.7625 1.89709,-3.85108 3.30399,-7.05182 3.30399,-7.51666 0,-0.16992 0.24179,-0.78061 0.5373,-1.35709 0.57991,-1.13126 1.38625,-3.9086 1.99425,-6.86896 0.20921,-1.01865 0.5884,-2.68552 0.84265,-3.70417 1.01536,-4.06811 0.78906,-63.80329 -0.24577,-64.87096 -0.46804,-0.4829 -0.95051,-0.87799 -1.07216,-0.87799 -0.12165,0 -0.66384,-0.20168 -1.20487,-0.44817 -0.54103,-0.24649 -1.51947,-0.63345 -2.17431,-0.8599 l -1.19063,-0.41172 -0.0661,-5.688546 c -0.0363,-3.128698 0.0232,-7.772135 0.13229,-10.31875 l 0.19836,-4.630208 2.38125,0.03401 c 1.50315,0.02146 2.75003,0.18844 3.3813,0.452803 0.55002,0.230338 1.74065,0.548489 2.64583,0.707 0.90519,0.158512 2.30063,0.507211 3.101,0.774887 0.80036,0.267676 1.99099,0.573381 2.64583,0.679343 0.65485,0.105963 1.50299,0.352447 1.88478,0.547743 0.38178,0.195296 1.55579,0.534741 2.60891,0.754323 1.05312,0.219582 2.05856,0.51858 2.23431,0.664441 0.17575,0.14586 0.91482,0.392864 1.64238,0.548896 0.72756,0.156033 1.90047,0.576137 2.60648,0.933565 0.70601,0.357427 1.41231,0.650419 1.56954,0.651092 1.43427,0.0061 1.91595,1.400616 2.06964,5.991603 0.51947,15.517058 0.0727,72.375478 -0.59422,75.631128 -0.14906,0.7276 -0.50141,2.95657 -0.783,4.95326 -0.28159,1.99669 -0.62415,3.84215 -0.76123,4.10104 -0.13708,0.25888 -0.45324,1.48273 -0.70258,2.71965 -0.24933,1.23693 -0.56095,2.38146 -0.69249,2.54339 -0.13153,0.16194 -0.36652,0.98346 -0.5222,1.8256 -0.15568,0.84214 -0.51184,1.95803 -0.79148,2.47977 -0.27963,0.52174 -0.50842,1.10901 -0.50842,1.30506 0,0.65031 -1.67202,4.43366 -4.23083,9.57327 -2.21148,4.44197 -3.12397,5.96624 -6.81077,11.37708 -4.82266,7.07785 -15.10866,17.45322 -24.31595,24.52722 -0.41694,0.32034 -1.41292,1.0965 -2.21328,1.7248 -1.78435,1.40075 -3.36063,2.5896 -4.13243,3.11673 -4.24674,2.90045 -6.77226,4.64802 -7.64153,5.28768 -0.58208,0.42832 -1.47505,1.02519 -1.98438,1.32638 -0.50932,0.30118 -1.46182,0.89952 -2.11666,1.32963 -0.65485,0.43011 -1.66688,1.02647 -2.24896,1.32524 -0.58208,0.29876 -1.53458,0.83152 -2.11667,1.18391 -0.58208,0.35238 -1.59411,0.947 -2.24896,1.32138 -0.65484,0.37437 -1.7532,1.00371 -2.44079,1.39854 -0.6876,0.39482 -2.71166,1.54001 -4.49792,2.54485 -1.78626,1.00484 -3.42634,1.97303 -3.64462,2.15152 -0.21828,0.17849 -0.69453,0.41182 -1.05833,0.51852 -0.3638,0.1067 -0.89959,0.40451 -1.19063,0.66181 -0.29104,0.25729 -0.88635,0.66184 -1.32291,0.89899 -0.43657,0.23716 -0.97235,0.53928 -1.19063,0.67139 -0.21828,0.13211 -1.4089,0.73419 -2.64583,1.33796 -1.23693,0.60377 -3.38005,1.68437 -4.7625,2.40134 -2.75723,1.42996 -2.73103,1.42516 -4.63021,0.84903 z"
       id="path1"
       inkscape:label="Shield" /></g></svg>
