<svg xmlns="http://www.w3.org/2000/svg" viewBox="0 0 270.93333 270.93333" width="270.93333" height="270.93333">
  <path fill="#339933" transform="scale(0.26458333)" d="m 510.26466,998.98086 c -1.86003,-0.60271 -5.32282,-2.10633 -7.69508,-3.34134 -2.37226,-1.23502 -6.1528,-3.02172 -8.40121,-3.97047 -7.56097,-3.19038 -63.86519,-32.94134 -67.81289,-35.83209 -1.19033,-0.87161 -4.00384,-2.55775 -6.25225,-3.74693 -2.2484,-1.18913 -6.01035,-3.44638 -8.35989,-5.01599 -2.34953,-1.56965 -5.2607,-3.29133 -6.46926,-3.82594 -1.20857,-0.53457 -3.24291,-1.79844 -4.52077,-2.80851 -1.27785,-1.01008 -4.31835,-2.96102 -6.75665,-4.33546 -13.5368,-7.63034 -38.233,-24.41485 -60.70354,-41.25649 -14.85323,-11.13252 -38.66624,-30.362 -45.44906,-36.70106 -8.29375,-7.75111 -23.94629,-23.58758 -30.1692,-30.52373 -8.76393,-9.76843 -34.33515,-43.59127 -36.05253,-47.68642 -0.3679,-0.87729 -1.92447,-3.47438 -3.45902,-5.77131 -1.53456,-2.29694 -4.30364,-6.88155 -6.15353,-10.18803 -4.66559,-8.33929 -14.71673,-29.25907 -16.29071,-33.90645 -0.7167,-2.11614 -1.9179,-5.07336 -2.66934,-6.57158 -2.44346,-4.87184 -10.39355,-29.98127 -13.44787,-42.47352 -4.27725,-17.4941 -8.04167,-41.00282 -8.66327,-54.10197 -0.23262,-4.90189 -0.57163,-72.03866 -0.75336,-149.19284 l -0.33042,-140.28032 3.17096,-3.17096 c 1.74403,-1.74403 3.99801,-3.50846 5.00883,-3.92097 1.01083,-0.41251 3.67748,-1.58721 5.92589,-2.61044 2.2484,-1.02323 6.14404,-2.42895 8.65696,-3.12381 2.51293,-0.69487 5.75929,-1.76644 7.21414,-2.38127 1.45485,-0.61483 5.35048,-1.77773 8.65696,-2.58422 3.30648,-0.80648 7.9596,-2.10796 10.34027,-2.89217 2.38066,-0.78422 7.06357,-1.98659 10.40647,-2.67195 3.34289,-0.68535 7.01114,-1.57533 8.15166,-1.97773 1.14052,-0.4024 5.76384,-1.48904 10.27405,-2.41476 4.51021,-0.92572 10.47284,-2.31889 13.25028,-3.09595 9.45743,-2.64594 17.15492,-2.98817 18.39289,-0.81773 0.46562,0.81634 0.60095,9.3277 0.60243,37.89098 0.002,31.38659 -0.10075,36.96188 -0.69182,37.67431 -1.55188,1.87051 -14.64069,7.48823 -17.44694,7.48823 -4.20525,0 -4.617,2.61689 -5.14572,32.70409 -0.51786,29.46888 0.20793,190.96217 0.91322,203.19819 0.67419,11.69647 1.82077,19.54001 4.50946,30.84864 1.18599,4.98827 2.49364,10.85465 2.90587,13.03641 0.41224,2.18175 1.18785,4.82602 1.72359,5.87616 0.53574,1.05014 1.86613,4.67567 2.95644,8.05674 8.85814,27.46949 26.74139,59.11211 46.01272,81.41489 6.37276,7.37522 17.51283,19.20953 24.44735,25.97089 7.95992,7.76116 23.05935,21.06903 28.10298,24.76854 1.80313,1.32259 7.07682,5.38655 11.71931,9.03108 4.6425,3.64449 10.9783,8.28078 14.07956,10.30285 3.10125,2.02207 8.24291,5.5494 11.42591,7.8385 11.20802,8.06035 20.51525,13.91732 39.93418,25.1303 14.29615,8.25494 47.59479,26.3531 50.73943,27.57733 1.19033,0.46344 3.09089,1.46991 4.22346,2.23658 6.03157,4.0831 12.70116,5.27844 18.0861,3.24136 3.54114,-1.33957 31.13409,-15.1318 43.33909,-21.6629 19.68942,-10.5361 58.04221,-34.55259 78.5819,-49.20792 30.37801,-21.67506 66.52618,-56.32485 86.36077,-82.78101 6.10355,-8.14114 15.1645,-23.00323 20.67173,-33.90645 5.49246,-10.87391 11.1732,-23.3186 12.51383,-27.41372 0.47628,-1.45485 1.7969,-4.91763 2.93476,-7.69507 1.13781,-2.77745 2.72444,-7.26764 3.52584,-9.9782 1.42123,-4.80715 6.52162,-26.82648 7.32499,-31.62333 3.10458,-18.53739 2.8025,-207.87526 -0.38249,-239.73048 -0.26914,-2.69191 -0.54265,-3.35554 -2.04805,-4.96942 -1.7905,-1.91951 -3.16301,-2.56786 -14.46112,-6.83133 l -5.53084,-2.08712 v -28.29476 c 0,-15.56212 0.18627,-33.00199 0.41395,-38.75527 l 0.41395,-10.4605 h 5.0156 c 7.01517,0 13.49505,0.80813 17.55656,2.18953 1.90329,0.64735 6.07383,1.7268 9.26791,2.39878 3.19408,0.67198 8.29631,1.95196 11.33827,2.84439 3.04196,0.89243 7.69113,2.10323 10.33151,2.69067 2.64037,0.58743 5.75221,1.47595 6.91523,1.97448 1.16301,0.49852 5.1708,1.67484 8.90619,2.61403 3.73538,0.9392 7.73432,2.12325 8.88647,2.63123 1.15219,0.50798 4.39855,1.58794 7.21413,2.39991 2.81563,0.81196 7.24718,2.43719 9.84797,3.61162 2.60079,1.17442 5.13358,2.13531 5.62847,2.13531 2.87512,0 4.83814,2.39161 5.97042,7.27395 1.80628,7.78843 1.94883,16.31192 1.92988,115.36638 -0.0208,108.43459 -0.92601,172.03426 -2.62508,184.44143 -1.72774,12.61617 -5.00873,31.92529 -6.00659,35.34927 -0.65523,2.24841 -1.8637,7.11795 -2.68544,10.82121 -0.82173,3.70325 -1.87154,7.59889 -2.3329,8.65696 -0.46132,1.05807 -1.21876,3.54695 -1.68321,5.53084 -1.17927,5.0375 -2.08854,7.91922 -3.64212,11.54262 -0.73719,1.71937 -1.88977,4.87951 -2.56126,7.02254 -0.67145,2.14303 -2.45339,6.68794 -3.95984,10.09979 -4.21599,9.54845 -16.06314,33.39953 -19.92314,40.10982 -4.70141,8.17307 -19.1469,29.74518 -24.55091,36.66311 -18.20603,23.30623 -47.75662,52.81133 -75.25576,75.13985 -13.90477,11.29032 -30.40475,23.74451 -42.08246,31.76399 -6.4807,4.4505 -14.27197,9.85191 -17.31393,12.00312 -6.52572,4.61493 -20.75634,13.62077 -26.21137,16.58785 -2.11614,1.15099 -6.87747,3.87144 -10.58073,6.0454 -3.70326,2.17395 -14.63267,8.44511 -24.28759,13.93593 -9.65492,5.49078 -18.74474,10.74493 -20.19959,11.67584 -1.45485,0.93091 -3.94373,2.27683 -5.53084,2.99093 -1.58711,0.71406 -4.63542,2.49095 -6.77402,3.94864 -2.1386,1.45769 -7.87384,4.6585 -12.74497,7.1129 -4.87114,2.45444 -13.88769,7.02935 -20.03679,10.16654 -12.68518,6.4718 -13.29404,6.6134 -19.61542,4.56496 z"/>
  <path fill="#339933" transform="scale(0.26458333)" d="m 699.77127,369.30575 c -0.79356,-0.10756 -5.01383,-0.64051 -9.37838,-1.18434 -4.36455,-0.54382 -11.72297,-1.72628 -16.35204,-2.62769 -4.62907,-0.90142 -10.7243,-1.96056 -13.54493,-2.35365 -2.82063,-0.3931 -7.47375,-1.24958 -10.34026,-1.9033 -2.8665,-0.65372 -9.54031,-1.86011 -14.83068,-2.68087 -5.29037,-0.82076 -11.80166,-2.01247 -14.46954,-2.64826 -2.66788,-0.63578 -8.18669,-1.61391 -12.26403,-2.17362 -4.07734,-0.55972 -10.76792,-1.74624 -14.86795,-2.63671 -4.10004,-0.89048 -11.29961,-2.18363 -15.99905,-2.87367 -4.69944,-0.69005 -10.97574,-1.87979 -13.94733,-2.64386 -11.36737,-2.92288 -20.3128,-3.61477 -46.76394,-3.61697 -26.57368,-0.002 -39.54297,0.97092 -51.70132,3.87937 -2.77744,0.66441 -8.53616,1.7244 -12.79714,2.35555 -4.26099,0.63115 -10.63974,1.82772 -14.17499,2.65905 -3.53526,0.83132 -10.74112,2.13754 -16.01303,2.90271 -5.27191,0.76516 -10.68828,1.71025 -12.03637,2.10019 -1.3481,0.38994 -6.34672,1.37277 -11.10805,2.18408 -4.76133,0.81129 -10.28015,1.88871 -12.26404,2.39425 -4.68323,1.1934 -7.50791,1.68064 -18.27581,3.15248 -4.89359,0.66889 -9.76313,1.44361 -10.8212,1.72159 -5.07766,1.334 -8.44579,1.92209 -14.87554,2.59731 -9.12667,0.95843 -14.16775,0.9576 -15.53861,-0.003 -2.18804,-1.53257 -2.23897,-2.3481 -2.41032,-38.5952 l -0.16206,-34.28089 3.50782,-1.65277 c 1.9293,-0.90903 5.56384,-2.21166 8.07677,-2.89474 7.94785,-2.16043 21.39576,-6.92044 23.86776,-8.44822 0.87524,-0.54093 2.93341,-1.50946 4.57372,-2.15229 4.3381,-1.70009 17.74712,-10.84663 21.79293,-14.86536 11.19488,-11.11996 17.57847,-26.22515 17.57847,-41.59515 0,-6.56245 -0.7657,-11.01377 -2.96879,-17.25863 -3.32082,-9.41321 -7.15401,-14.98306 -17.47072,-25.38604 -9.38212,-9.46058 -16.75327,-14.45094 -33.66651,-22.79269 -23.60266,-11.64102 -30.97003,-14.80274 -43.28482,-18.57574 -2.11615,-0.64834 -7.41854,-2.34275 -11.78309,-3.76534 -18.11695,-5.90509 -46.70609,-12.79964 -71.9009,-17.33961 -21.88887,-3.94426 -31.37462,-6.47817 -37.06077,-9.89997 -10.70775,-6.44369 -16.29167,-22.425676 -16.28258,-46.603055 0.003,-7.752273 0.16308,-10.270451 0.74945,-11.78309 l 0.74575,-1.92377 3.80072,-0.318942 c 4.91642,-0.412567 58.02916,-1.26004 118.02456,-1.883214 60.41027,-0.627483 331.86587,-1.173614 344.57513,-0.693237 l 9.59872,0.362806 1.31682,1.409667 c 2.15795,2.310105 3.28133,6.064729 3.41508,11.414167 0.13702,5.481319 0.42025,5.996764 3.85538,7.016888 5.70307,1.693628 13.4549,1.806749 100.38645,1.464906 46.68749,-0.18359 89.32303,-0.175218 94.74566,0.01861 l 9.85932,0.352405 1.56306,1.561793 c 2.64557,2.643441 2.06685,5.041981 -4.39538,18.21599 -6.07719,12.388993 -10.9424,19.347576 -20.49339,29.311126 -9.99076,10.42231 -26.37118,23.15423 -40.39916,31.40085 -3.99697,2.34968 -15.1546,7.59593 -21.23554,9.98479 -7.37126,2.89574 -23.88499,8.52265 -30.94672,10.54481 -4.23229,1.21194 -8.92759,2.64148 -10.43395,3.17676 -1.50641,0.53529 -4.86098,1.31445 -7.45461,1.73148 -2.59367,0.41703 -7.52925,1.38393 -10.96799,2.14867 -3.43874,0.76473 -10.89657,2.16303 -16.57294,3.10732 -5.67637,0.94429 -11.53497,2.03155 -13.01906,2.41612 -1.48414,0.38456 -6.57891,1.36372 -11.32172,2.1759 -9.64261,1.65122 -16.87796,3.85043 -22.33021,6.78734 -11.87601,6.39712 -19.9039,16.13102 -23.14679,28.06569 -1.53375,5.64459 -1.54901,15.71103 -0.0324,21.40194 1.34555,5.04921 5.06587,12.66029 8.25581,16.88985 5.28237,7.00391 17.73867,16.96494 28.38982,22.70265 8.68298,4.67748 21.2022,9.49619 29.57796,11.3847 5.54757,1.25082 8.06415,2.38444 9.22438,4.1552 1.87221,2.85734 2.05814,6.041 2.04679,35.0443 -0.0121,30.81054 -0.30761,37.34445 -1.75452,38.79136 -0.96559,0.96559 -3.25141,1.39654 -5.66911,1.06882 z"/>
  <path fill="#33ccff" transform="scale(0.26458333)" d="m 460.69273,822.54017 c -4.61419,-3.05193 -12.70414,-8.22253 -17.97767,-11.49021 -10.41249,-6.45198 -14.02794,-8.95794 -29.71166,-20.59389 -17.09018,-12.67942 -41.75744,-34.5639 -54.07741,-47.97678 -6.88137,-7.49183 -17.82809,-20.88251 -17.82809,-21.8084 0,-0.34215 -0.81679,-1.5928 -1.8151,-2.77923 -2.29426,-2.72656 -11.53564,-19.86565 -14.76248,-27.37852 -3.77491,-8.78891 -6.24146,-16.22589 -10.65382,-32.12277 -1.45957,-5.25855 -3.32983,-15.76686 -5.20745,-29.25871 -1.13991,-8.19099 -1.22884,-16.14799 -1.22884,-109.95341 V 418.05482 l 1.42148,-1.92011 c 0.78182,-1.05606 2.27923,-2.34028 3.32758,-2.85383 2.87568,-1.40868 14.2612,-1.99512 43.54197,-2.24273 l 26.52606,-0.22432 2.63699,1.63922 c 2.82271,1.75468 4.62488,4.98562 5.9847,10.72945 0.55051,2.32534 0.90585,32.0676 1.2255,102.57758 0.33652,74.22887 0.66726,100.84832 1.30987,105.42408 0.93558,6.66184 6.45339,23.97742 9.75328,30.60699 2.7323,5.48924 10.2982,16.03434 15.91731,22.18499 10.34993,11.32898 24.30124,22.75711 40.39029,33.08545 6.76684,4.34396 10.94946,7.48632 11.71955,8.80477 2.12733,3.64213 2.53277,12.01723 2.70967,55.9722 0.18657,46.36102 0.1942,46.25057 -3.19337,46.25057 -0.89041,0 -5.39417,-2.49704 -10.00836,-5.54896 z"/>
  <path fill="#33ccff" transform="scale(0.26458333)" d="m 516.8908,845.48694 c -0.91547,-1.39718 -1.17169,-6.00679 -1.69181,-30.43696 -0.80801,-37.95293 -0.80347,-245.51041 0.007,-317.51635 0.71919,-63.8993 1.21885,-81.83389 2.32151,-83.32746 1.6588,-2.24686 19.05356,-2.68025 107.53531,-2.67921 87.67913,0.001 97.03987,0.25114 100.76574,2.69242 3.86426,2.53196 3.95762,3.3799 3.96835,36.04345 0.0112,34.11258 0.13209,33.31723 -5.4385,35.78137 -4.97056,2.19871 -14.43801,2.61157 -60.30748,2.62986 -45.55956,0.0182 -52.33105,0.35001 -57.13301,2.79979 -5.00562,2.55368 -4.96396,2.27174 -4.96562,33.60607 -10e-4,26.77638 0.0534,27.98017 1.37626,30.24285 3.57299,6.11124 5.0786,6.25464 63.18906,6.01814 51.0289,-0.20769 52.5136,-0.1294 54.10978,2.8531 3.05821,5.71431 2.24728,63.809 -1.00729,72.16196 -0.59159,1.51834 -8.04091,1.9622 -33.61784,2.00308 -35.858,0.0573 -80.67078,1.10083 -82.19002,1.91391 -1.26823,0.67873 -1.43022,1.6066 -1.82462,10.45136 -0.23806,5.33858 -0.72517,38.93619 -1.08247,74.66135 -0.64778,64.76964 -0.92286,71.32014 -3.13717,74.70511 -0.94442,1.44373 -16.89721,12.37695 -19.78369,13.55874 -0.66688,0.27303 -2.8959,1.60025 -4.95337,2.94937 -2.05747,1.34913 -7.10762,4.37544 -11.22256,6.72512 -4.11494,2.34969 -9.47116,5.56719 -11.90272,7.15 -7.66364,4.98861 -29.79876,16.65947 -31.59661,16.65947 -0.18663,0 -0.82481,-0.74095 -1.41818,-1.64654 z"/>
</svg>
